HIERARCHY
ROOT Hips
{
	OFFSET 0.00000 0.00000 0.00000
	CHANNELS 6 Xposition Yposition Zposition Zrotation Yrotation Xrotation 
	JOINT LHipJoint
	{
		OFFSET 0 0 0
		CHANNELS 3 Zrotation Yrotation Xrotation
		JOINT LeftHip
		{
			OFFSET 1.37590 -1.78394 0.89329
			CHANNELS 3 Zrotation Yrotation Xrotation
			JOINT LeftKnee
			{
				OFFSET 2.47928 -6.81178 0.00000
				CHANNELS 3 Zrotation Yrotation Xrotation
				JOINT LeftAnkle
				{
					OFFSET 2.63345 -7.23535 0.00000
					CHANNELS 3 Zrotation Yrotation Xrotation
					JOINT LeftToe
					{
						OFFSET 0.23938 -0.65768 2.27012
						CHANNELS 3 Zrotation Yrotation Xrotation
						End Site
						{
							OFFSET 0.00000 -0.00000 1.18363
						}
					}
				}
			}
		}
	}
	JOINT RHipJoint
	{
		OFFSET 0 0 0
		CHANNELS 3 Zrotation Yrotation Xrotation
		JOINT RightHip
		{
			OFFSET -1.33617 -1.78394 0.89329
			CHANNELS 3 Zrotation Yrotation Xrotation
			JOINT RightKnee
			{
				OFFSET -2.56922 -7.05888 0.00000
				CHANNELS 3 Zrotation Yrotation Xrotation
				JOINT RightAnkle
				{
					OFFSET -2.56568 -7.04915 0.00000
					CHANNELS 3 Zrotation Yrotation Xrotation
					JOINT RightToe
					{
						OFFSET -0.27533 -0.75646 2.18105
						CHANNELS 3 Zrotation Yrotation Xrotation
						End Site
						{
							OFFSET -0.00000 -0.00000 1.15233
						}
					}
				}
			}
		}
	}
	JOINT lowerback
	{
		OFFSET 0 0 0
		CHANNELS 3 Zrotation Yrotation Xrotation
		JOINT Chest
		{
			OFFSET 0.06190 2.15152 -0.00935
			CHANNELS 3 Zrotation Yrotation Xrotation
			JOINT Chest2
			{
				OFFSET 0.06334 2.15332 0.00872
				CHANNELS 3 Zrotation Yrotation Xrotation
				JOINT lowerneck
				{
					OFFSET 0 0 0
					CHANNELS 3 Zrotation Yrotation Xrotation
					JOINT Neck
					{
						OFFSET -0.04202 1.66908 0.23524
						CHANNELS 3 Zrotation Yrotation Xrotation
						JOINT Head
						{
							OFFSET 0.07510 1.69357 -0.24440
							CHANNELS 3 Zrotation Yrotation Xrotation
							End Site
							{
								OFFSET 0.02556 1.71719 -0.11000
							}
						}
					}
				}
				JOINT LeftCollar
				{
					OFFSET 0 0 0
					CHANNELS 3 Zrotation Yrotation Xrotation
					JOINT LeftShoulder
					{
						OFFSET 3.67168 1.26306 -0.41342
CHANNELS 3 Zrotation Xrotation Yrotation
						JOINT LeftElbow
						{
OFFSET 0 -4.685100 -0.000000
CHANNELS 3 Zrotation Xrotation Yrotation
							JOINT LeftWrist
							{
OFFSET 0 -3.396260 -0.000000
CHANNELS 3 Zrotation Xrotation Yrotation
								JOINT lhand
								{
									OFFSET 0 0 0
CHANNELS 3 Zrotation Xrotation Yrotation
									JOINT LFingers
									{
OFFSET 0 -0.486080 -0.000000
CHANNELS 3 Zrotation Xrotation Yrotation
										End Site
										{
OFFSET 0 -0.391890 -0.000000
										}
									}
								}
								JOINT LThumb
								{
OFFSET 0 0.000000 0.000000
CHANNELS 3 Zrotation Xrotation Yrotation
									End Site
									{
OFFSET 0 -0.397870 0.397870
									}
								}
							}
						}
					}
				}
				JOINT RightCollar
				{
					OFFSET 0 0 0
					CHANNELS 3 Zrotation Yrotation Xrotation
					JOINT RightShoulder
					{
						OFFSET -3.04136 1.42992 -0.76390
CHANNELS 3 Zrotation Xrotation Yrotation
						JOINT RightElbow
						{
OFFSET 0 -5.555760 -0.000000
CHANNELS 3 Zrotation Xrotation Yrotation
							JOINT RightWrist
							{
OFFSET 0 -3.327740 -0.000000
CHANNELS 3 Zrotation Xrotation Yrotation
								JOINT rhand
								{
									OFFSET 0 0 0
CHANNELS 3 Zrotation Xrotation Yrotation
									JOINT RFingers
									{
OFFSET 0 -0.507630 -0.000000
CHANNELS 3 Zrotation Xrotation Yrotation
										End Site
										{
OFFSET 0 -0.409260 -0.000000
										}
									}
								}
								JOINT RThumb
								{
OFFSET 0 0.000000 0.000000
CHANNELS 3 Zrotation Xrotation Yrotation
									End Site
									{
OFFSET 0 -0.415510 0.415510
									}
								}
							}
						}
					}
				}
			}
		}
	}
}
MOTION
Frames: 7
Frame Time: 0.008333333333333333
41.098300 17.875500 1.729800 -110.729000 -84.853700 120.882000 0.000000 0.000000 0.000000 -14.563700 -8.166900 -5.214800 0.265500 3.314900 9.156700 0.162500 4.000100 -10.155800 0.003100 0.357800 0.983200 0.000000 0.000000 0.000000 26.288900 8.161000 -9.921600 -0.679900 -5.272100 14.686200 -0.175500 -5.001700 -11.322400 -0.717600 -5.413300 15.091100 3.416700 -2.226800 -6.654800 3.303500 -3.349500 -2.314600 1.229500 -1.717000 1.343500 -12.373400 -9.516800 -12.538400 8.824200 -12.301100 15.128300 3.487700 -5.871500 8.063700 0.000000 -0.000000 0.000000 -1.213400 0.526700 -12.245400 11.381000 -18.869800 1.897300 12.028900 32.996900 -21.268000 0.000000 0.000000 0.000000 -7.125000 0.000000 0.000000 -16.683300 50.921000 2.493200 0.000000 -0.000000 0.000000 -5.707100 -0.842900 11.753200 -12.035900 -19.858500 -2.114500 -15.423700 21.165500 24.702500 0.000000 0.000000 0.000000 7.125000 0.000000 -0.000000 14.980400 54.859000 -3.689000
41.094959 17.876519 1.724130 -109.560366 -84.871745 119.718119 0.000000 0.000000 0.000000 -14.511850 -8.220469 -5.197469 0.265825 3.316965 9.162491 0.164687 3.961684 -10.166540 0.002227 0.307089 0.843729 0.000000 0.000000 0.000000 26.340743 8.145712 -9.888596 -0.676246 -5.258212 14.646526 -0.172368 -5.069475 -11.328668 -0.718176 -5.415372 15.097280 3.481410 -2.197228 -6.794663 3.225679 -3.322600 -2.180508 1.105741 -1.698409 1.551252 -12.383670 -9.584760 -12.579198 9.022309 -12.406262 14.930740 3.539627 -5.903040 8.031479 0.000000 0.000000 0.000000 -0.996471 0.189527 -12.652639 11.483186 -19.025023 1.930506 12.063938 32.705680 -21.381682 0.000000 0.000000 0.000000 -7.125000 0.000000 0.000000 -16.700097 51.036467 2.544090 0.000000 0.000000 0.000000 -5.503247 -1.212913 12.015506 -12.118644 -19.982270 -2.142710 -15.310159 20.967382 24.492962 0.000000 0.000000 0.000000 7.125000 0.000000 0.000000 14.988635 54.632352 -3.607590
41.091745 17.876900 1.719102 -108.715214 -84.877520 118.892913 0.000000 0.000000 0.000000 -14.460875 -8.250281 -5.196296 0.264708 3.310018 9.143147 0.164864 3.938611 -10.150322 0.002466 0.320733 0.881204 0.000000 0.000000 0.000000 26.385384 8.138653 -9.893392 -0.675476 -5.255151 14.637812 -0.171872 -5.102181 -11.350602 -0.728094 -5.452055 15.202463 3.505219 -2.144782 -6.769420 3.178684 -3.251260 -2.153168 1.049995 -1.661691 1.561686 -12.289668 -9.645802 -12.820749 9.026617 -12.481136 14.963853 3.505813 -5.924334 8.087340 0.000000 0.000000 0.000000 -0.841956 -0.016480 -13.041557 11.593818 -19.192762 1.966720 12.170721 32.485196 -21.287791 0.000000 0.000000 0.000000 -7.125000 0.000000 0.000000 -16.556803 50.962872 2.490864 0.000000 0.000000 0.000000 -5.374641 -1.405408 12.406416 -12.246213 -20.172857 -2.186462 -15.340777 20.772160 24.623142 0.000000 0.000000 0.000000 7.125000 0.000000 0.000000 15.023592 54.765391 -3.665504
41.085316 17.875471 1.707084 -107.263364 -84.923623 117.520523 0.000000 0.000000 0.000000 -14.381047 -8.258721 -5.273704 0.264387 3.307603 9.136288 0.167639 3.829116 -10.112546 0.002068 0.294132 0.808252 0.000000 0.000000 0.000000 26.448560 8.229146 -9.856999 -0.666577 -5.221153 14.540405 -0.163303 -5.307490 -11.392312 -0.727330 -5.448987 15.193744 3.481392 -2.101616 -7.037957 3.093117 -3.208148 -1.989055 0.962908 -1.633028 1.876888 -12.143785 -9.759709 -13.176372 8.977147 -12.628733 15.136179 3.429933 -5.977536 8.210448 0.000000 0.000000 0.000000 -0.582521 -0.473453 -13.468183 11.674447 -19.314552 1.993276 12.226716 32.272385 -21.449201 0.000000 0.000000 0.000000 -7.125000 0.000000 0.000000 -16.574573 51.128106 2.562052 0.000000 0.000000 0.000000 -5.136142 -1.877967 12.597837 -12.313668 -20.273316 -2.209760 -15.346638 20.603493 24.340756 0.000000 0.000000 0.000000 7.125000 0.000000 0.000000 14.875685 54.490351 -3.527534
41.078858 17.878647 1.701628 -104.624010 -84.996099 114.824912 0.000000 0.000000 0.000000 -14.355447 -8.360279 -5.162456 0.263279 3.300911 9.117675 0.169526 3.731563 -10.068688 0.002839 0.343152 0.942944 0.000000 0.000000 0.000000 26.492554 8.137476 -9.718733 -0.656310 -5.181673 14.427505 -0.156476 -5.474623 -11.430650 -0.738640 -5.490279 15.312370 3.431544 -2.169626 -6.936957 3.119668 -3.287672 -2.079535 1.018053 -1.675934 1.731127 -12.505701 -9.711117 -12.661848 9.406082 -12.599947 14.722836 3.655497 -5.966062 8.034250 0.000000 0.000000 0.000000 -0.554864 -0.388716 -13.667752 11.800373 -19.504510 2.035175 12.346257 32.040721 -21.344764 0.000000 0.000000 0.000000 -7.125000 0.000000 0.000000 -16.414083 51.046433 2.502556 0.000000 0.000000 0.000000 -5.151142 -1.785924 13.211333 -12.458683 -20.488951 -2.260342 -15.238787 20.361165 24.615093 0.000000 0.000000 0.000000 7.125000 0.000000 0.000000 15.122268 54.738620 -3.678870
41.073536 17.879566 1.696819 -103.280417 -85.054982 113.468417 0.000000 0.000000 0.000000 -14.375545 -8.414455 -5.115008 0.262644 3.297015 9.106798 0.170555 3.688453 -10.053248 0.002586 0.330050 0.906951 0.000000 0.000000 0.000000 26.488474 8.037260 -9.675519 -0.650567 -5.159384 14.363825 -0.154858 -5.529225 -11.456565 -0.732136 -5.466521 15.244172 3.408459 -2.145776 -6.894539 3.073215 -3.250208 -2.035958 0.986823 -1.655632 1.751336 -12.451276 -9.778280 -12.916597 9.379249 -12.671534 14.799646 3.616867 -5.989651 8.107226 0.000000 0.000000 0.000000 -0.419472 -0.640560 -13.975731 11.890925 -19.640852 2.065452 12.375754 31.817593 -21.278054 0.000000 0.000000 0.000000 -7.125000 0.000000 0.000000 -16.356687 50.986690 2.468936 0.000000 0.000000 0.000000 -5.049009 -2.030005 13.555309 -12.556581 -20.634036 -2.294665 -15.174894 20.216398 24.803870 0.000000 0.000000 0.000000 7.125000 0.000000 0.000000 15.282944 54.909949 -3.784900
41.068922 17.879797 1.691029 -102.243147 -85.068771 112.442953 0.000000 0.000000 0.000000 -14.334569 -8.445016 -5.128421 0.263919 3.305216 9.129529 0.174461 3.607904 -10.065123 0.002423 0.317791 0.873074 0.000000 0.000000 0.000000 26.524931 8.014413 -9.650729 -0.646761 -5.144782 14.321896 -0.153048 -5.578023 -11.471230 -0.739353 -5.493086 15.320457 3.387163 -2.178640 -6.920820 3.086190 -3.292870 -2.111326 1.009387 -1.679005 1.689836 -12.628943 -9.712096 -12.534354 9.463586 -12.605385 14.725686 3.697810 -5.975145 8.025841 0.000000 0.000000 0.000000 -0.386195 -0.567253 -14.086365 12.030878 -19.850847 2.112761 12.484403 31.604603 -21.324568 0.000000 0.000000 0.000000 -7.125000 0.000000 0.000000 -16.273087 51.049210 2.481230 0.000000 0.000000 0.000000 -5.041958 -1.994704 14.220055 -12.684390 -20.822978 -2.339871 -15.204617 19.933132 24.393365 0.000000 0.000000 0.000000 7.125000 0.000000 0.000000 15.044706 54.514820 -3.578058
